<svg xmlns="http://www.w3.org/2000/svg" width="97" height="62" viewBox="0 0 97 62"><path fill="#00469B" d="M96.784 30.94c0 17.088-21.617 30.941-48.283 30.941S.216 48.028.216 30.94 21.834 0 48.5 0s48.284 13.853 48.284 30.94"/><path fill="#00A97A" d="M16.861 11.358h-1.244l.648-.567 1.056-.325.541-1.598 1.109-.676.137.812-1.029.568-.407 1.219-.811.567"/><path fill="#00A97A" d="M16.21 9.411l.84.054-.054.487-1.218.622-.623-.217.082-.405.973-.541m5.482-2.937c0 .202-.281.365-.629.365s-.63-.163-.63-.365.282-.365.63-.365.629.162.629.365m13.966-3.247l.406.364-.446.365.04-.729m2.436-.244l-.881.204-.582-.123v-.446h.448l1.259-.61-.244.975m7.457 9.025l.027-1.867.594-.676.245.46-.542 2.083h-.324m-.514 2.274c-.376-1.081-.31-.339.271-1.408l.975.516-.271.73-.244-.054-.38-.027-.351.243m.108.406l.352.027.107.921-.053.459-.271.732h-.352l-.324.108-.354.541-.162-.028-.162-.298-.867.11-.433.026-.026-.351 1.299-.271.541-.92h.298l.19-.462.189-.323.028-.271m-1.449 2.951l-.02.202-.183.035-.325.188-.203-.324.285-.042.081-.081.365.022m-1.096.262l.081.123.081.264-.203.183-.223-.019-.142-.428-.224-.345.611-.021.019.243m-2.232 3.432l-.062.406v.101l-.141-.081-.123-.02v-.366l.082-.04.182-.082.062.082m-.366 3.673l.081.143.447.285-.04.141-.386.183-.731-.63-.183-.06.019-.163.305-.913.102.306.386.708m1.076 2.902l-.609.488-.183.02-.67-.485-.041-.408.162-.1h.488l.406-.123.426-.04.021.648m-2.111 3.229l.101-.142.345-.06.589-.285.02.121-.345.569v.305l.08.041.083.14.547.163-.019.143-.549.447v.852l-.446-.548-.123.041-.121.832-.223-.04-.122-.121-.223-.571-.021-.324.427-.832v-.731m-10.8-3.106l.204-.244.162-.019.122.447.122.323-.062.204-.182.243h-.142l-.224-.447v-.223l-.041-.081.041-.203m12.89 4.791l.629.142.467.04-.161.406-.367-.019-.466-.041-.061-.264-.041-.264m-1.684 2.253l.061-.223h.975l.101.163-.02.446-.143-.062-.974-.324m6.658 13.641l.182-.325.245-.061.283.143.244.04.06 1.36-.182.041-.161-.061-.671-1.137m5.257 1.461s.994-.851 1.097-1.542l.202-.041.184.122.184.528-.752 1.076-.711.486h-.203v-.629m2.294-4.811l.302 1.218.549.487-.446.571-.142.243-.061.669-.345.02-.041-.549-.548-.588.407-.771.061-1.284.264-.016m7.388-43.014l-.325.022-.284-.122-.365-.041-.385.163-.265-.022-.507-.588.772-.121.548.019.019.163.284.244.528.02-.02.263m-3.369.631c.162-.042.629-.143.872.02.243.161.142.507.142.628 0 .123-.324.042-.324.042l-.711-.509.021-.181m2.354.325l.204.02.792.303.222.082h1.258l-.072.407-.317.188-.423-.027-.791-.506-.629.019-.264-.386.02-.1m7.55 2.435l.914.325.366.223-.203.061h-.67l-.446-.427-.142-.141.181-.041M62.96 3.286l-.015-.295.766-.008 1.197.466 1.36.04.914.853h.892l1.727 1.097.975.061 1.4.894-3.391-.711-.324-.183-2.416-1.38c-1.015.474-2.314-.234-3.085-.834m3.093 7.801c.273.256.402.503.28.7-.034.056-.474.059-.792-.14-.415-.261-.39-.579-.257-.724.134-.141.494-.093.769.164M63.34 9.68c.211.249.223.603.051.747 0 0-.479.058-.689-.192s-.244-.568-.074-.713c.169-.143.5-.092.712.158m15.88.245l.08.122.528.852.73.041.123.203-.123.203c-.547.081-.824.099-1.117-.102-.385-.265-.466-.649-.445-1.035.022-.386.061-.244.224-.284m6.415 13.68l.303.325.041.142-.467.103s-.953.04-1.015.04c-.061 0-.061-.284-.061-.284l.103-.365 1.096.039M73.901 53.75l.631-.224v1.3l-.631-1.076M22.274 5.431l-1.026-.032c4.431-1.945 9.392-3.43 14.718-4.345l-.862 1.211-2.626.514-1.921.028-.597.352-1.569.486-.379.027-.895.568-.242.026-.677-.242-.894.946-.891-.16-.65.378-.676.136-.813.107"/><path fill="#00A97A" d="M62.006 1.764l.592-.423c4.341.848 8.421 2.076 12.147 3.625l-.154.371c1.745.933 3.167 2.274 3.167 2.274l-.854.567-1.501-1.421-1.583-1.015-3.533-1.056-.934-1.015-1.218-.042-1.907-.729-1.646.117-.505-.847-.852.041-1.112-.104-.107-.343m8.789 56.188l-1.814 1.016c-5.314 1.597-11.156 2.593-17.312 2.847l2.177-1.569.467-.953 1.623.284 1.543-1.056 2.111-.304.468.344h3.39l.527.446.689.062.711.081.223.041.042-.244.282-.223.57-.062 1.4-.323s.588-.446.77-.529l.509-.223h.609l1.116-.75.832-.145 1.097-.345-.042.528-.304.325-1.684.752m-21.314 3.086l-.591.842-.39.002c-7.241 0-14.111-1.023-20.276-2.853l.005-.042.142-.204s.365 0 .528-.079c.161-.082.548-.121.548-.121.406.161 1.521.303 1.521.303l1.017-.872.832-.509.831.021 1.3.162 1.745.609 1.056-.873 2.029-.081 1.442-.487 1.197.69 1.624-.265 3.105-.054 1.076.703.63-.282.528.689.892.487-.02.69-.812.546.041.978M14.858 45.056l-2.11-2.382-2.274-4.871-.433-3.573-1.733-1.462.434-2.977-.406-.109-.432-.514-1.164-.163-.19.3-1.244-.244-.812.784-1.789-1.055-.297-1.571-.649-.594 1.137-3.06v-.757l2.355-3.005 2.164-.839 2.221-2.192 2.463.055.297-.325 1.381.027-.271 1.028 1.381 1.759.801-.896v1.112s.809.232 1.889.474c-.881 3.331.477 5.448.713 5.785.025 1.189.039 2.62.035 4.337l-.006 2.07h-.103l-1.056 1.49.352 2.679.748 1.394c0 .048-.002.095-.005.141l-1.149 1.984.515 1.272.022.034a8.192 8.192 0 0 1-.834 1.67c-.455.68-1.239 1.504-1.951 2.194m23.787-25.032a45.744 45.744 0 0 0 1.608-.376l.005.384c-.216.65-.717 1.07-1.041 1.558l-.893.63c.11-1.576.243-2.054.321-2.196m-.145 8.271l.547.792-.568.67v.162l.102.427.02.346-.449.706a258.935 258.935 0 0 1 0-3.076l.348-.027m8.828 12l1.099 2.291-.365 2.05-.305 1.482-.792.995-.873.142-.975-.081-.527-.954-.528-.548-.549.02-1.318-1.258-2.923 1.278-.365-.223-.103-1.319-.486-.874-.082-.567.051-.765c1.436.039 2.411.088 2.411.088v-1.84s-.569-.188-1.487-.401l.387-.33.02-.406.731-.649.345-1.116 1.422-.042.467-.954.486.163h.467l.061.467-.02.59-.062.223-.02.425 1.442.874.102-.081.106-.942a10.756 10.756 0 0 0 2.183 2.262m-4.268-7.198l-.196.01-.041-.649-.386-.325.083-.71.299.132c.06.535.14 1.049.241 1.542m52.372 1.024l-.596 2.003-4.086 5.386-1.082-.082-1.679 1.896-1.082 1.191-2.139 1.569-.622.055-.38 1.244-1.785.677-1.463 1.569-.27-.486-.324.812-1.109.622-.542.516-.597.703-.514.217-.298-.027-.515.486-.486.516-.894.081-.514.352.108-.812 1.704-1.271.325-.703.299.188 2.002-1.678.026-1.136s1.732-1.489 2.355-2.734l.46-.623.947-1.3v-.404l.434-.878 1.5.024c.056-2.002 1.354-5.413 1.354-5.413l-1.571-.676s-.527 1.112-1.016 1.684c-.043-.104-.621-1.53-.646-2.077-.027-.567.027-2.245.027-2.245s.459-1.624.486-1.788c.027-.161.027-.594.027-.594l-.244-.786.299-1.678-.623-.108.107-.434-.351-.189-.108.516h-.003c.03-1.399.104-2.478.104-2.478h-1.604s-.04.166-.099.394l-1.541-1.245-.944.027-2.247-1.246-1.245-1.922.042-.347c.146-.225.395-.373.815-.373.489 0 1.12.021 1.798.055l.403 1.911.92.73h.65l.353-1.138h.864l.271 1.463.027.513 1.65.731.379 1.894.786.38.107-1.001.975-.784.486.974.569-.974.729.676.785.026.65 1.002 1.299.976 1.136 1.135.839 1.272-.08 1.057 1.001.46.65-.488 1.515.922.162.594.874.619M81.737 21.962l1.045.027c.207.164.293.332.35.467.086.2.334.604.473.823-.183.038-.224-.078-.224-.078l-.912-.69-.793-.121-.081-.184.142-.244"/><path fill="#00A97A" d="M26.415 12.307l-1.812.297-.541 1.056-.136 1.137.378.596-.92 1.11.244.514.947-.217.406-.947-.189-.161.026-.218.298-.135.352.026.055-1.325.677-.38.271.243-.056-1.596m.894 1.595l.676.38.081-.271.054-1.109-.461-.163-.35 1.163zm3.035-.378l.238.244.271-.731-.348-.298-.161.785zm6.979-3.898l-.568.921-.298.054-.108.866.648-.188.381-.678.514-.108v-.785l-.569-.082zm16.32-3.694l-1.123.013v.976l-.609-.028-.365.596-1.191-.257-.515.716-.109.541-.107.177.285.447-.854 1.083-.312-1.421.082-.23.729-1.272-.364-.027-.433-.419c-.109.541-.65.974-.65.974l-1.611.014-.771.46c-.474.406-.73 1.069-.73 1.069v.46l.188.325s-.459 2.084-.514 2.287-.5.784-.609.853c-.107.067-.717.081-.717.081-.541 1.488-1.245 2.178-1.245 2.178l.015 1.408c-.015.189-.596.338-.596.338l-.027-.608c.055-.189.08-.839.08-.839l-.676-1.001-.271-.475-.73 1.312-.108.163v.136l.135.026.934.636-.014.136-.432.555-.014.325.095.013.027.05c-.652.029-2.988.127-5.558.127-3.031 0-5.738-.136-5.738-.136v1.84s.897.257 2.063.511c.089.186.237.799.349 2.805h-.182l-.082-.066h-.365l-.055.066-1.988 1.773-.434 1.597-.744 1.542-.068.082-.135-.122-.475-2.098-.039-2.341-.623-.609.393-.812-.054-.121-.353-.082h-.04l-.981-.73-.417.009c.035-.352.075-.66.12-.912 1.162-.247 2.051-.491 2.051-.491v-1.84s-2.705.136-5.736.136c-.661 0-1.305-.008-1.91-.017l.817-1.169-1.502-.548.833-1.44 3.105-.305.203-.548-.406-.387.508-.872-.73.102-.184.63-.508.061-.547-.569-.873.528-.527 1.178h-.834l-.994.427-.346 1.278-.283-.02-.244-2.355-.608-.041a11.167 11.167 0 0 0 .081 2.111l-.568.265-.121-.021c.121-.405.08-1.033.061-1.257-.021-.225-.163-.914-.163-.914l-1.157-.042-.75.771-.244-.04v-.082l-.379.054-.46.732-1.57.623-.92.107-.135-.162.487-.921 1.027-.352.055-.704 1.191-.107.703-.136.867-.378.107-.975.893-.461h.541l1.164.082 1.434-.894.705-.921.867.083 1.353-1.274.729.841 4.115-1.625.352-.487v-.219h-.352l-.055-.135 1.84-1.488-2.977 1.137-.027.486-1.055.353-.947.676-.677.135-.108-.108.324-.486.406-.298h-.217l-.189.108-.73-.027-.108-.244 1.138-.893.784.027 4.872-2.463 1.461.026.826-.778 1.096.427-.062.994-.48-.021-.217.191-.02.675.508-.026.98-1.286.223.244.65-.284 2.639.121.607-.608.854-.243-.73 1.502.568-.285.162.935.691-1.948.811.202.163-.771 3.532-.976.202.407-.041.527.935.041.649.122.649.404h1.3l.324-.121.366.285.689-.122 1.3.893 1.136-.04.488-.365c.242.202 1.744.812 1.988.934l.799.094.015.541zm20.109 7.458l1.001-.136.271.704.542.297.216-.541.649.188-.163-1.299-.92.082-1.028-.542-.568 1.247m-7.063-2.112l-1.056-1.002-.135-.27-1.084.026-1.568-1.462-1.247-.487-.188-.515-.868.163-.756-.84-.84-.135-.65 1.001-.107-.025-.136-.597-.487.325-.027 1.354-.975.406-.025-.133.784-.922v-.596l-.352.054-.623.028-.243.026-.486-.702v-.244l.053-.271-.026-.137-.515-.081-.162.189-.162.163-.136-.054-.378-.975.297-.326v-.62l-.162-.323-.055-.244.189-.136.082-.217.541.081.595.108.649-.298.461.596.893.027.353.325.431-.366 1.598.014.326.162.406.107 1.136.895.758.189.136-.299.649-.054-.135-.677h.487l.621.271.38.299.46-.191h.244l1.002.623.054.353s.46 1.001 1.435 1.867h1.014l.285.541.107.216.65-.08 1.056.649 1.218-.19.542.867.403-.053-.54-1.109-.703-.542-1.273-.73-.136-.434.027-.135.188-.027s1.056.703 2.165.919l.65.65h.217l.46-.568 1.488 1.083.028.325 1.082-.164 1.352 1.191-.134.705.134.892.569-.297.704.758 1.002.621.026.222-.68.187-.05 2.164.188.353.055.568.352.378.018 1.002c-2.41.071-5.246.151-5.837.151-1.171 0-2.593-.014-3.949-.03l-.3-.798-.812-.027-1.03-1.462-.351-.513-1.54-2.544-.055-.271.217-.731-.243-.19z"/><path fill="#FFF" d="M31.224 39.697a24.168 24.168 0 0 0-2.003.515v1.84s2.707-.135 5.738-.135 5.737.135 5.737.135v-1.84s-.784-.262-2.001-.515c-.083-.025-.549-.58-.549-9.867 0-8.046.35-9.535.498-9.806 1.162-.248 2.052-.492 2.052-.492v-1.84s-2.706.136-5.737.136-5.738-.136-5.738-.136v1.84s.897.257 2.063.511c.153.319.487 1.917.487 9.787.001 9.287-.464 9.842-.547 9.867m-9.8-21.869c-3.032 0-5.738-.136-5.738-.136v1.84s.916.264 2.102.521c.213.426.553 2.322.535 10.075-.012 4.738-.013 7.176-.108 8.527-.136 1.678-.759 3.233-1.407 4.207-.975 1.464-3.492 3.601-3.492 3.601l1.327 2.354s4.979-1.813 7.497-4.465c2.516-2.653 2.605-4.792 2.679-6.497.08-1.835-.311-14.496.292-17.832 1.162-.247 2.051-.491 2.051-.491v-1.84c-.001 0-2.706.136-5.738.136m41.043 17.187c-1.056 1.298-4.631 3.054-6.957 2.586-5.792-1.163-7.145-5.86-6.334-10.163.578-3.062 3.493-5.935 6.523-5.982 3.41-.056 3.979 1.542 3.979 1.542l.325 1.57 1.624.215c0-2.488.947-5.961.947-5.961-.816-.359-2.982-1.553-7.525-1.688-7.833-.234-12.52 6.701-12.342 12.82.266 9.106 6.253 12.693 11.992 12.802 6.818.127 8.85-4.195 9.444-5.224l-1.676-2.517m12.119-12.088c.037-.804-.055-1.813 1.052-1.813 1.546 0 4.528.206 5.827.409 1.301.203 1.544.649 1.666.934.121.284.568.975.568.975l1.623-.894c-.893-1.3-1.136-4.952-1.136-4.952s-8.368.259-9.434.259c-3.358 0-8.788-.106-8.788-.106V19.6s.911.263 2.092.519c.164.337.459 2.026.459 9.782 0 8.259-.21 9.519-.288 9.733-1.263.268-2.263.646-2.263.646v1.839s6.029-.042 9.723-.082c3.775-.042 8.93.056 8.93.056.056-2.002 1.354-5.413 1.354-5.413l-1.571-.676s-.756 1.597-1.297 1.947c-1.228.798-6.203.634-7.422.579-.406-.018-1.139.01-1.158-1.119-.039-2.166 0-6.36 0-6.36 2.734-.027 4.178-.026 5.225.135.703.108.758.352 1.135 1.812h1.578s-.117-1.69-.117-3.585.117-3.587.117-3.587h-1.604s-.38 1.598-.542 1.624c-2.01.336-5.791.081-5.791.081s.008-3.455.062-4.604"/></svg>